<?xml version="1.0" encoding="UTF-8" standalone="no"?>
<!DOCTYPE svg PUBLIC "-//W3C//DTD SVG 1.1//EN" "http://www.w3.org/Graphics/SVG/1.1/DTD/svg11.dtd">
<svg width="100%" height="100%" viewBox="0 0 944 189" version="1.1" xmlns="http://www.w3.org/2000/svg" xmlns:xlink="http://www.w3.org/1999/xlink" xml:space="preserve" xmlns:serif="http://www.serif.com/" style="fill-rule:evenodd;clip-rule:evenodd;stroke-linejoin:round;stroke-miterlimit:2;">
    <g transform="matrix(0.549873,0,0,0.549873,-950.404,-812.198)">
        <g transform="matrix(0.651089,0,0,0.651089,1291.23,425.167)">
            <g transform="matrix(1,0,0,1,44.8134,35.3458)">
                <circle cx="890.324" cy="1843.93" r="263.676" style="fill:rgb(50,68,77);"/>
            </g>
            <g transform="matrix(0.708829,0,0,0.708829,451.4,1467.44)">
                <g transform="matrix(1.41078,0,0,1.41078,-1865.63,-1721.5)">
                    <path d="M1724.13,1657.53L1832.27,1777.94L1832.27,1684.6L1766.12,1605.78L1724.13,1657.53Z" style="fill:rgb(255,128,0);"/>
                </g>
                <g transform="matrix(2.0393,0,0,2.0393,-256.971,-362.203)">
                    <path d="M340.941,563.421L340.941,476.819L460.814,326.182L460.814,415.976L340.941,563.421Z" style="fill:rgb(211,86,14);"/>
                </g>
                <g transform="matrix(-2.0393,0,0,2.0393,1621.69,-362.203)">
                    <path d="M340.941,563.421L340.941,476.819L460.414,326.182L460.327,416.138L340.941,563.421Z" style="fill:rgb(255,128,0);"/>
                </g>
            </g>
        </g>
        <g transform="matrix(15.8856,0,0,15.8856,-24565.4,-27930.9)">
            <g transform="matrix(12,0,0,12,1679.65,1866.24)">
                <path d="M0.239,-0.7C0.135,-0.7 0.051,-0.615 0.051,-0.511L0.051,-0L0.175,-0L0.175,-0.321L0.626,-0.321L0.626,-0.446L0.176,-0.446L0.176,-0.511C0.176,-0.546 0.205,-0.575 0.24,-0.575L0.751,-0.575L0.751,-0.7L0.239,-0.7Z" style="fill:rgb(50,68,77);fill-rule:nonzero;"/>
            </g>
            <g transform="matrix(12,0,0,12,1687.41,1866.24)">
                <path d="M0.66,-0.125L0.367,-0.7L0.074,-0.125L0.01,-0L0.15,-0L0.214,-0.125L0.367,-0.425L0.52,-0.125L0.584,-0L0.724,-0L0.66,-0.125Z" style="fill:rgb(50,68,77);fill-rule:nonzero;"/>
            </g>
            <g transform="matrix(12,0,0,12,1696.21,1866.24)">
                <rect x="0.05" y="-0.7" width="0.125" height="0.7" style="fill:rgb(50,68,77);fill-rule:nonzero;"/>
            </g>
            <g transform="matrix(12,0,0,12,1698.91,1866.24)">
                <path d="M0.515,-0.323C0.534,-0.325 0.552,-0.33 0.569,-0.338C0.634,-0.368 0.679,-0.434 0.679,-0.51C0.679,-0.562 0.658,-0.609 0.624,-0.643C0.59,-0.677 0.543,-0.698 0.491,-0.698L0.049,-0.698L0.049,0.002L0.174,0.002L0.174,-0.32L0.299,-0.32C0.344,-0.32 0.383,-0.296 0.405,-0.26L0.408,-0.254L0.475,-0.123L0.539,0.002L0.679,0.002L0.615,-0.123L0.515,-0.323ZM0.174,-0.444L0.174,-0.573L0.491,-0.573C0.513,-0.573 0.528,-0.563 0.536,-0.555C0.543,-0.548 0.555,-0.532 0.555,-0.509C0.555,-0.484 0.54,-0.461 0.517,-0.451C0.509,-0.447 0.5,-0.445 0.491,-0.445L0.174,-0.444Z" style="fill:rgb(50,68,77);fill-rule:nonzero;"/>
            </g>
            <g transform="matrix(12,0,0,12,1707.67,1866.24)">
                <path d="M0.4,-0.575L0.75,-0.575L0.75,-0.7L0.4,-0.7C0.207,-0.7 0.05,-0.543 0.05,-0.35C0.05,-0.157 0.207,-0 0.4,-0L0.75,-0L0.75,-0.384L0.4,-0.384L0.4,-0.259L0.625,-0.259L0.625,-0.125L0.4,-0.125C0.276,-0.125 0.175,-0.226 0.175,-0.35C0.175,-0.474 0.276,-0.575 0.4,-0.575Z" style="fill:rgb(50,68,77);fill-rule:nonzero;"/>
            </g>
            <g transform="matrix(12,0,0,12,1717.27,1866.24)">
                <path d="M0.515,-0.323C0.534,-0.325 0.552,-0.33 0.569,-0.338C0.634,-0.368 0.679,-0.434 0.679,-0.51C0.679,-0.562 0.658,-0.609 0.624,-0.643C0.59,-0.677 0.543,-0.698 0.491,-0.698L0.049,-0.698L0.049,0.002L0.174,0.002L0.174,-0.32L0.299,-0.32C0.344,-0.32 0.383,-0.296 0.405,-0.26L0.408,-0.254L0.475,-0.123L0.539,0.002L0.679,0.002L0.615,-0.123L0.515,-0.323ZM0.174,-0.444L0.174,-0.573L0.491,-0.573C0.513,-0.573 0.528,-0.563 0.536,-0.555C0.543,-0.548 0.555,-0.532 0.555,-0.509C0.555,-0.484 0.54,-0.461 0.517,-0.451C0.509,-0.447 0.5,-0.445 0.491,-0.445L0.174,-0.444Z" style="fill:rgb(50,68,77);fill-rule:nonzero;"/>
            </g>
            <g transform="matrix(12,0,0,12,1726.03,1866.24)">
                <path d="M0.376,-0.7C0.183,-0.7 0.026,-0.543 0.026,-0.35C0.026,-0.157 0.183,-0 0.376,-0C0.569,-0 0.726,-0.157 0.726,-0.35C0.726,-0.543 0.569,-0.7 0.376,-0.7ZM0.376,-0.125C0.252,-0.125 0.151,-0.226 0.151,-0.35C0.151,-0.474 0.252,-0.575 0.376,-0.575C0.5,-0.575 0.601,-0.474 0.601,-0.35C0.601,-0.226 0.5,-0.125 0.376,-0.125Z" style="fill:rgb(50,68,77);fill-rule:nonzero;"/>
            </g>
            <g transform="matrix(12,0,0,12,1735.06,1866.24)">
                <path d="M0.625,-0.7L0.625,-0.35C0.625,-0.226 0.524,-0.125 0.4,-0.125C0.276,-0.125 0.175,-0.226 0.175,-0.35L0.175,-0.7L0.05,-0.7L0.05,-0.35C0.05,-0.157 0.207,-0 0.4,-0C0.593,-0 0.75,-0.157 0.75,-0.35L0.75,-0.7L0.625,-0.7Z" style="fill:rgb(50,68,77);fill-rule:nonzero;"/>
            </g>
            <g transform="matrix(12,0,0,12,1744.66,1866.24)">
                <path d="M0.625,-0.7L0.625,-0.254L0.175,-0.601L0.05,-0.697L0.05,0.001L0.175,0.001L0.175,-0.442L0.625,-0.095L0.75,0.001L0.75,-0.699L0.625,-0.7Z" style="fill:rgb(50,68,77);fill-rule:nonzero;"/>
            </g>
            <g transform="matrix(12,0,0,12,1754.26,1866.24)">
                <path d="M0.4,-0.7L0.05,-0.7L0.05,-0L0.4,-0C0.496,-0 0.583,-0.039 0.646,-0.103C0.653,-0.11 0.66,-0.117 0.666,-0.124C0.718,-0.185 0.749,-0.264 0.749,-0.35C0.749,-0.543 0.592,-0.699 0.399,-0.699L0.4,-0.7ZM0.399,-0.124L0.174,-0.124L0.174,-0.574L0.399,-0.574C0.523,-0.574 0.624,-0.473 0.624,-0.349C0.624,-0.225 0.523,-0.124 0.399,-0.124Z" style="fill:rgb(50,68,77);fill-rule:nonzero;"/>
            </g>
        </g>
    </g>
</svg>
